<svg width="48" height="48" viewBox="0 0 48 48" fill="none" xmlns="http://www.w3.org/2000/svg">
<circle opacity="0.2" cx="24" cy="24" r="24" fill="#896CFE"/>
<path fill-rule="evenodd" clip-rule="evenodd" d="M20.0509 12.6836C20.2255 12.1596 20.7918 11.8765 21.3158 12.0511C21.8397 12.2257 22.1229 12.7921 21.9482 13.316C21.2192 15.5032 19.5029 17.2194 17.3158 17.9485L17.1226 18.0187C15.7897 18.5452 14.8649 19.7886 14.7541 21.2294L13.9966 31.0765C13.9543 31.6271 13.4735 32.0392 12.9229 31.9968C12.3722 31.9545 11.9601 31.4737 12.0025 30.9231L12.76 21.076C12.9378 18.7643 14.4838 16.7843 16.6833 16.0511L16.9192 15.9663C18.3962 15.3955 19.5474 14.194 20.0509 12.6836ZM26.6836 12.0511C27.2075 11.8765 27.7738 12.1596 27.9485 12.6836C28.4519 14.194 29.6031 15.3955 31.0801 15.9663L31.316 16.0511C33.5156 16.7843 35.0615 18.7643 35.2394 21.076L35.9968 30.9231C36.0392 31.4737 35.6271 31.9545 35.0765 31.9968C34.5258 32.0392 34.0451 31.6271 34.0027 31.0765L33.2453 21.2294C33.1344 19.7886 32.2097 18.5452 30.8767 18.0187L30.6836 17.9485C28.4964 17.2194 26.7802 15.5032 26.0511 13.316C25.8765 12.7921 26.1596 12.2257 26.6836 12.0511ZM17.8965 24.5529C17.6497 24.0589 17.0491 23.8584 16.555 24.1052C16.061 24.352 15.8605 24.9525 16.1073 25.4466C16.5399 26.3129 16.8989 27.3394 17.1867 28.4921C17.541 29.9106 17.7703 31.4412 17.8979 32.9734C17.9426 33.5107 17.9713 34.0092 17.9873 34.4554L17.9922 34.6045L17.9998 34.9998C17.9998 35.5521 18.4475 35.9998 18.9998 35.9998C19.5521 35.9998 19.9998 35.5521 19.9998 34.9998L19.9979 34.8158L19.986 34.3841C19.969 33.9074 19.9384 33.3775 19.891 32.8074C19.7551 31.1756 19.5104 29.5421 19.1271 28.0075C18.8062 26.7226 18.4003 25.5617 17.8965 24.5529ZM30.1049 24.5529C30.3517 24.0589 30.9523 23.8584 31.4464 24.1052C31.9405 24.352 32.141 24.9525 31.8942 25.4466C31.4615 26.3129 31.1026 27.3394 30.8147 28.4921C30.4605 29.9106 30.2311 31.4412 30.1036 32.9734C30.0588 33.5107 30.0301 34.0092 30.0142 34.4554L30.0093 34.6045L30.0017 34.9998C30.0017 35.5521 29.5539 35.9998 29.0017 35.9998C28.4494 35.9998 28.0017 35.5521 28.0017 34.9998L28.0035 34.8158L28.0155 34.3841C28.0325 33.9074 28.063 33.3775 28.1105 32.8074C28.2463 31.1756 28.4911 29.5421 28.8743 28.0075C29.1952 26.7226 29.6011 25.5617 30.1049 24.5529ZM21.9998 17.9998C22.5521 17.9998 22.9998 18.4475 22.9998 18.9998L22.9981 19.1218L22.9832 19.4162C22.9638 19.6885 22.9259 20.0261 22.8612 20.4142C22.6896 21.4438 22.3802 22.475 21.8942 23.447C21.6472 23.941 21.0465 24.1412 20.5526 23.8942C20.0586 23.6472 19.8584 23.0465 20.1054 22.5526C20.4944 21.7746 20.7475 20.9308 20.8884 20.0854C20.9094 19.9594 20.9269 19.8409 20.9412 19.731L20.9756 19.4279L20.9942 19.1821L20.9998 18.9998C20.9998 18.4475 21.4475 17.9998 21.9998 17.9998ZM24.9996 18.9998C24.9996 18.4475 25.4473 17.9998 25.9996 17.9998C26.5518 17.9998 26.9996 18.4475 26.9996 18.9998L27.0052 19.1821L27.0238 19.4279L27.0581 19.731C27.0725 19.8409 27.09 19.9594 27.111 20.0854C27.2519 20.9308 27.505 21.7746 27.894 22.5526C28.141 23.0465 27.9408 23.6472 27.4468 23.8942C26.9528 24.1412 26.3521 23.941 26.1051 23.447C25.6191 22.475 25.3098 21.4438 25.1382 20.4142C25.0735 20.0261 25.0355 19.6885 25.0161 19.4162L25.0013 19.1218L24.9996 18.9998Z" fill="black"/>
</svg>
