<svg width="48" height="48" viewBox="0 0 48 48" fill="none" xmlns="http://www.w3.org/2000/svg">
<circle opacity="0.2" cx="24" cy="24" r="24" fill="#896CFE"/>
<path fill-rule="evenodd" clip-rule="evenodd" d="M20.0511 12.684C20.2258 12.1601 20.7921 11.8769 21.316 12.0516C21.84 12.2262 22.1231 12.7926 21.9485 13.3165C21.2194 15.5036 19.5032 17.2199 17.316 17.949L17.1229 18.0192C15.7899 18.5457 14.8652 19.7891 14.7543 21.2299L13.9969 31.077C13.9545 31.6276 13.4738 32.0397 12.9231 31.9973C12.3724 31.955 11.9604 31.4742 12.0027 30.9236L12.7602 21.0765C12.938 18.7648 14.484 16.7848 16.6836 16.0516L16.9195 15.9668C18.3965 15.396 19.5476 14.1945 20.0511 12.684ZM26.6838 12.0516C27.2077 11.8769 27.7741 12.1601 27.9487 12.684C28.4522 14.1945 29.6033 15.396 31.0804 15.9668L31.3163 16.0516C33.5158 16.7848 35.0618 18.7648 35.2396 21.0765L35.9971 30.9236C36.0394 31.4742 35.6274 31.955 35.0767 31.9973C34.5261 32.0397 34.0453 31.6276 34.003 31.077L33.2455 21.2299C33.1347 19.7891 32.2099 18.5457 30.877 18.0192L30.6838 17.949C28.4967 17.2199 26.7804 15.5036 26.0513 13.3165C25.8767 12.7926 26.1599 12.2262 26.6838 12.0516ZM17.8967 24.5534C17.65 24.0594 17.0494 23.8589 16.5553 24.1057C16.0612 24.3524 15.8607 24.953 16.1075 25.4471C16.5402 26.3134 16.8991 27.3399 17.187 28.4926C17.5412 29.9111 17.7706 31.4417 17.8981 32.9739C17.9428 33.5112 17.9716 34.0097 17.9875 34.4558L17.9924 34.605L18 35.0003C18 35.5526 18.4477 36.0003 19 36.0003C19.5523 36.0003 20 35.5526 20 35.0003L19.9981 34.8163L19.9862 34.3845C19.9692 33.9079 19.9387 33.378 19.8912 32.8079C19.7554 31.1761 19.5106 29.5425 19.1274 28.008C18.8065 26.7231 18.4006 25.5622 17.8967 24.5534ZM30.1052 24.5534C30.352 24.0594 30.9526 23.8589 31.4466 24.1057C31.9407 24.3524 32.1412 24.953 31.8944 25.4471C31.4617 26.3134 31.1028 27.3399 30.815 28.4926C30.4607 29.9111 30.2314 31.4417 30.1038 32.9739C30.0591 33.5112 30.0304 34.0097 30.0144 34.4558L30.0095 34.605L30.0019 35.0003C30.0019 35.5526 29.5542 36.0003 29.0019 36.0003C28.4496 36.0003 28.0019 35.5526 28.0019 35.0003L28.0038 34.8163L28.0157 34.3845C28.0327 33.9079 28.0632 33.378 28.1107 32.8079C28.2466 31.1761 28.4913 29.5425 28.8746 28.008C29.1954 26.7231 29.6014 25.5622 30.1052 24.5534ZM22 18.0003C22.5523 18.0003 23 18.448 23 19.0003L22.9983 19.1223L22.9835 19.4167C22.9641 19.689 22.9261 20.0265 22.8614 20.4147C22.6898 21.4442 22.3805 22.4755 21.8945 23.4475C21.6475 23.9415 21.0468 24.1417 20.5528 23.8947C20.0588 23.6477 19.8586 23.047 20.1056 22.5531C20.4946 21.7751 20.7477 20.9313 20.8886 20.0859C20.9096 19.9599 20.9271 19.8414 20.9415 19.7315L20.9758 19.4284L20.9944 19.1826L21 19.0003C21 18.448 21.4477 18.0003 22 18.0003ZM24.9998 19.0003C24.9998 18.448 25.4475 18.0003 25.9998 18.0003C26.5521 18.0003 26.9998 18.448 26.9998 19.0003L27.0054 19.1826L27.024 19.4284L27.0584 19.7315C27.0727 19.8414 27.0902 19.9599 27.1112 20.0859C27.2521 20.9313 27.5052 21.7751 27.8942 22.5531C28.1412 23.047 27.941 23.6477 27.447 23.8947C26.953 24.1417 26.3524 23.9415 26.1054 23.4475C25.6194 22.4755 25.31 21.4442 25.1384 20.4147C25.0737 20.0265 25.0358 19.689 25.0164 19.4167L25.0015 19.1223L24.9998 19.0003Z" fill="black"/>
</svg>
